<svg xmlns="http://www.w3.org/2000/svg" width="26" height="26" viewBox="0 0 26 26"><g transform="translate(0 -1026.362)"><circle cx="13" cy="1039.362" r="13" fill="#239fdb" fill-rule="evenodd"/><path fill="#0b5ecd" style="line-height:normal;text-indent:0;text-align:start;text-decoration-line:none;text-decoration-style:solid;text-decoration-color:#000;text-transform:none;block-progression:tb;isolation:auto;mix-blend-mode:normal" d="M 11.386719 25.886719 A 12.999996 12.999996 0 0 0 11.703125 25.935547 A 12.999996 12.999996 0 0 0 13 26 A 12.999996 12.999996 0 0 0 13.919922 25.966797 A 12.999996 12.999996 0 0 0 15.208984 25.810547 A 12.999996 12.999996 0 0 0 16.476562 25.525391 A 12.999996 12.999996 0 0 0 17.710938 25.117188 A 12.999996 12.999996 0 0 0 18.896484 24.585938 A 12.999996 12.999996 0 0 0 20.023438 23.939453 A 12.999996 12.999996 0 0 0 21.080078 23.183594 A 12.999996 12.999996 0 0 0 22.056641 22.326172 A 12.999996 12.999996 0 0 0 22.943359 21.375 A 12.999996 12.999996 0 0 0 23.728516 20.339844 A 12.999996 12.999996 0 0 0 24.408203 19.232422 A 12.999996 12.999996 0 0 0 24.974609 18.0625 A 12.999996 12.999996 0 0 0 25.419922 16.841797 A 12.999996 12.999996 0 0 0 25.638672 15.982422 L 15.828125 6.171875 C 15.104045 5.447775 14.103669 5 13 5 C 10.792649 5 9 6.7927 9 9 L 9 10 A 0.50005006 0.50005006 0 0 0 9.0019531 10.044922 C 9.0634071 10.739222 9.207827 11.340419 9.5605469 11.886719 C 9.6586315 12.038638 9.7858584 12.1839 9.9238281 12.326172 C 9.9373291 12.340082 9.9451408 12.35529 9.9589844 12.369141 L 11 13.410156 L 11.003906 14.259766 C 9.1743336 14.774866 7.4308662 15.800803 6.1074219 17.470703 A 0.50005006 0.50005006 0 0 0 6 17.78125 L 6 20.5 A 0.50005006 0.50005006 0 0 0 6.5 21 L 11.386719 25.886719 z M 10.574219 11.574219 L 10.654297 11.654297 C 10.67874 11.681692 10.694125 11.708603 10.720703 11.736328 C 10.668951 11.682272 10.618048 11.627143 10.574219 11.574219 z " color="#000" font-family="sans-serif" font-weight="400" transform="translate(0 1026.362)"/><path fill="#fff" style="line-height:normal;text-indent:0;text-align:start;text-decoration-line:none;text-decoration-style:solid;text-decoration-color:#000;text-transform:none;block-progression:tb;isolation:auto;mix-blend-mode:normal" d="M 8,0 C 5.7926486,0 4,1.7927 4,4 L 4,5 A 0.50005006,0.50005006 0 0 0 4.00195,5.044922 C 4.063404,5.739222 4.2078239,6.3404189 4.5605438,6.8867189 4.8659938,7.3598187 5.3825351,7.7721375 6,8.2109375 L 6.00391,9.2597656 C 4.1743363,9.7748656 2.43087,10.800803 1.1074257,12.470703 A 0.50005006,0.50005006 0 0 0 1,12.78125 L 1,15.5 A 0.50005006,0.50005006 0 0 0 1.5,16 l 13,0 A 0.50005006,0.50005006 0 0 0 15,15.5 l 0,-2.71875 a 0.50005006,0.50005006 0 0 0 -0.109375,-0.310547 c -0.231306,-0.291 -0.4905,-0.590069 -0.755859,-0.855469 -1.207228,-1.2077 -2.640847,-1.9408746 -4.128907,-2.3593746 l -0.0039,-1.0351563 C 10.618742,7.7935031 11.146394,7.4069 11.472656,6.9375 11.848668,6.3966 12,5.7613 12,5 L 12,4 C 12,1.7927 10.207351,0 8,0 Z m 0,1 c 1.318078,0 2.412354,0.8322572 2.820312,2.0019531 -0.761944,0.00691 -1.3020671,0.046008 -1.5957026,-0.013672 C 8.9047994,2.9232812 8.7542791,2.8286125 8.4375,2.2578125 A 0.50005,0.50005 0 0 0 7.9824219,2.0019531 0.50005,0.50005 0 0 0 7.5703125,2.2460938 C 7.2333085,2.8131937 7.0331637,2.9206281 6.6875,2.9863281 6.3731973,3.0463402 5.8588244,3.0068533 5.1796875,3.0019531 5.587646,1.8322572 6.681922,1 8,1 Z M 7.988281,3.0996094 c 0.3185214,0.3757 0.6276052,0.7840875 1.0371094,0.8671875 C 9.6029081,4.0840969 10.173928,4 11,4 l 0,1 c 0,0.6426 -0.09867,1.0090875 -0.347656,1.3671875 -0.248983,0.3582 -0.6965122,0.7279969 -1.4296878,1.2167969 A 0.50005006,0.50005006 0 0 0 9,8.0039062 L 9.0078125,9.4375 8,9.9414062 7.0039062,9.4433594 7,8 A 0.50005006,0.50005006 0 0 0 6.7773438,7.5839844 C 6.0553007,7.1026844 5.6437455,6.7227031 5.4003906,6.3457031 5.1580745,5.9704031 5.0544513,5.5712906 5,4.9628906 L 5,4 A 0.50005,0.50005 0 0 0 5.00391,4 C 5.7271529,4 6.289245,4.07975 6.875,3.96875 7.2945598,3.88875 7.6397481,3.4814094 7.9882812,3.0996094 Z m -1.75,7.0781246 L 7.5,10.810547 7.5,13.5 l 1,0 0,-2.689453 1.2421875,-0.621094 c 1.3369305,0.375322 2.6037545,1.050604 3.6855465,2.132813 0.193798,0.1939 0.388172,0.424237 0.572266,0.648437 L 14,15 2,15 2,12.996094 c 1.1720845,-1.429182 2.6566922,-2.365458 4.2382812,-2.81836 z" color="#000" font-family="sans-serif" font-weight="400" overflow="visible" transform="translate(5 1031.362)"/></g></svg>