<svg xmlns="http://www.w3.org/2000/svg" viewBox="0 0 48 48"><defs><linearGradient id="a" x1="24" x2="24" y1="42.537" y2="5.463" gradientUnits="userSpaceOnUse"><stop offset="0" stop-color="#d120e8"/><stop offset="1" stop-color="#3717fb"/></linearGradient></defs><path fill="url(#a)" d="M34.5746,42.537H7.4438a1.50039,1.50039,0,0,1-1.5-1.5V13.90714a1.50039,1.50039,0,0,1,1.5-1.5H21.49452a1.5,1.5,0,0,1,0,3H8.94374V39.53708L33.0746,39.537l.00006-13.78028a1.50013,1.50013,0,0,1,2.99994.00007V41.037A1.50039,1.50039,0,0,1,34.5746,42.537Zm-7.93676-24.7732c-4.21384,5.816-5.51026,16.25645,1.64978,20.30353l.20941-.215c-7.7473-8.8942.78684-22.44046,10.12768-26.2898l-3.86944,7.47278.178.0896c3.1699-2.575,5.14679-6.17272,7.12286-9.66681-3.60568-1.7516-7.24458-3.63463-11.316-3.99512l-.0896.178L37.9692,9.6257A20.7066,20.7066,0,0,0,26.63784,17.76382Z" data-name="arrow"/></svg>